<svg xmlns="http://www.w3.org/2000/svg" width="1200" height="860" viewBox="0 0 1200 860" fill="none">
  <rect width="1200" height="860" rx="32" fill="#F7F3EE"/>
  <rect x="24" y="24" width="1152" height="812" rx="24" fill="#FCFBF8" stroke="#D8E0E8"/>
  <rect x="56" y="64" width="220" height="732" rx="20" fill="#EAF0F5"/>
  <rect x="88" y="100" width="98" height="34" rx="17" fill="#5D738A"/>
  <text x="116" y="122" fill="#FCFBF8" font-family="Arial, Helvetica, sans-serif" font-size="20" font-weight="700">CampIn</text>
  <rect x="88" y="184" width="156" height="12" rx="6" fill="#5D738A" fill-opacity=".22"/>
  <rect x="88" y="224" width="132" height="12" rx="6" fill="#5D738A" fill-opacity=".12"/>
  <rect x="88" y="264" width="146" height="12" rx="6" fill="#5D738A" fill-opacity=".12"/>
  <rect x="88" y="304" width="118" height="12" rx="6" fill="#5D738A" fill-opacity=".12"/>
  <rect x="88" y="384" width="144" height="112" rx="18" fill="#FCFBF8" stroke="#D8E0E8"/>
  <text x="110" y="424" fill="#1F252B" font-family="Arial, Helvetica, sans-serif" font-size="20" font-weight="700">Weekend trip</text>
  <text x="110" y="454" fill="#58626D" font-family="Arial, Helvetica, sans-serif" font-size="16">2 nights</text>
  <rect x="110" y="474" width="88" height="10" rx="5" fill="#5D738A" fill-opacity=".16"/>
  <rect x="310" y="64" width="834" height="76" rx="22" fill="#FFFFFF" stroke="#D8E0E8"/>
  <text x="352" y="110" fill="#1F252B" font-family="Arial, Helvetica, sans-serif" font-size="30" font-weight="700">Sierra de Gredos</text>
  <text x="745" y="110" fill="#58626D" font-family="Arial, Helvetica, sans-serif" font-size="20">May 18-19</text>
  <rect x="314" y="170" width="516" height="286" rx="24" fill="#FFFFFF" stroke="#D8E0E8"/>
  <text x="346" y="216" fill="#1F252B" font-family="Arial, Helvetica, sans-serif" font-size="22" font-weight="700">Trip overview</text>
  <text x="346" y="250" fill="#58626D" font-family="Arial, Helvetica, sans-serif" font-size="17">Packing, weather and campsite setup in one place.</text>
  <rect x="346" y="284" width="452" height="108" rx="18" fill="#F4F7FA"/>
  <rect x="374" y="316" width="108" height="12" rx="6" fill="#5D738A" fill-opacity=".18"/>
  <rect x="374" y="348" width="248" height="14" rx="7" fill="#5D738A" fill-opacity=".12"/>
  <rect x="374" y="374" width="216" height="14" rx="7" fill="#5D738A" fill-opacity=".12"/>
  <rect x="656" y="310" width="112" height="56" rx="16" fill="#DCE7F0"/>
  <text x="683" y="345" fill="#43586E" font-family="Arial, Helvetica, sans-serif" font-size="22" font-weight="700">8/12</text>
  <rect x="346" y="414" width="182" height="10" rx="5" fill="#5D738A" fill-opacity=".18"/>
  <rect x="314" y="486" width="250" height="264" rx="24" fill="#FFFFFF" stroke="#D8E0E8"/>
  <text x="346" y="532" fill="#1F252B" font-family="Arial, Helvetica, sans-serif" font-size="22" font-weight="700">Checklist</text>
  <circle cx="362" cy="576" r="10" fill="#5D738A"/>
  <path d="M357 576.5L361 580.5L368.5 572.5" stroke="#FCFBF8" stroke-width="2.4" stroke-linecap="round" stroke-linejoin="round"/>
  <text x="386" y="582" fill="#58626D" font-family="Arial, Helvetica, sans-serif" font-size="18">Tent and rain cover</text>
  <circle cx="362" cy="622" r="10" fill="#5D738A"/>
  <path d="M357 622.5L361 626.5L368.5 618.5" stroke="#FCFBF8" stroke-width="2.4" stroke-linecap="round" stroke-linejoin="round"/>
  <text x="386" y="628" fill="#58626D" font-family="Arial, Helvetica, sans-serif" font-size="18">Portable stove</text>
  <circle cx="362" cy="668" r="10" stroke="#BFCBD6" stroke-width="2"/>
  <text x="386" y="674" fill="#58626D" font-family="Arial, Helvetica, sans-serif" font-size="18">Lantern and batteries</text>
  <circle cx="362" cy="714" r="10" stroke="#BFCBD6" stroke-width="2"/>
  <text x="386" y="720" fill="#58626D" font-family="Arial, Helvetica, sans-serif" font-size="18">Food and water</text>
  <rect x="592" y="486" width="250" height="124" rx="24" fill="#FFFFFF" stroke="#D8E0E8"/>
  <text x="624" y="532" fill="#1F252B" font-family="Arial, Helvetica, sans-serif" font-size="22" font-weight="700">Weather</text>
  <text x="624" y="565" fill="#58626D" font-family="Arial, Helvetica, sans-serif" font-size="17">Cloudy morning, clear night.</text>
  <text x="624" y="596" fill="#43586E" font-family="Arial, Helvetica, sans-serif" font-size="28" font-weight="700">16° / 7°</text>
  <rect x="592" y="626" width="552" height="124" rx="24" fill="#FFFFFF" stroke="#D8E0E8"/>
  <text x="624" y="672" fill="#1F252B" font-family="Arial, Helvetica, sans-serif" font-size="22" font-weight="700">Camp setup</text>
  <text x="624" y="705" fill="#58626D" font-family="Arial, Helvetica, sans-serif" font-size="17">Arrival slot, car access and gear order tracked for the trip.</text>
  <rect x="1020" y="658" width="92" height="36" rx="18" fill="#5D738A"/>
  <text x="1047" y="681" fill="#FCFBF8" font-family="Arial, Helvetica, sans-serif" font-size="16" font-weight="700">Ready</text>
</svg>
