<svg xmlns="http://www.w3.org/2000/svg" viewBox="0 0 64 64" role="img" aria-labelledby="title">
  <title id="title">RA favicon</title>
  <rect x="1" y="1" width="62" height="62" rx="14" fill="#2e405a" />
  <path
    d="M9.2 15.2h17.7c7.9 0 12.4 4.8 12.4 11.1 0 4.8-2.6 8.5-7.1 10.1l7.6 12.4H29L22.7 37.9h-4.8v10.9H9.2V15.2Zm16 15c3.2 0 5.1-1.5 5.1-4.1s-1.9-4.2-5.1-4.2h-7.3v8.3h7.3Z"
    fill="#f8f5f1"
  />
  <path
    d="M43.7 15.2h9.1L66 48.8h-9.6l-2.2-6.1H42.1l-2.2 6.1H30.2l13.5-33.6Zm8.1 20.1-3.6-10.3-3.7 10.3h7.3Z"
    fill="#f8f5f1"
    transform="translate(-2.4 0)"
  />
  <path d="M34.1 39.5 40.2 45l-6.5 5.8-5.7-5.8Z" fill="#224f84" />
  <path d="M34.1 39.5 40.2 45l3.6-3.3-6.1-5.2Z" fill="#4f97da" />
  <path d="M34.1 39.5 30.6 36 24.9 41.9l3.1 3.1Z" fill="#3b6faa" />
</svg>
